<svg width="281" height="48" viewBox="0 0 281 48" fill="none" xmlns="http://www.w3.org/2000/svg">
<path d="M61.9749 29.7054V15.2582C61.9749 14.957 62.083 14.6982 62.2992 14.482C62.5155 14.2657 62.7743 14.1576 63.0755 14.1576H65.2304C65.5471 14.1576 65.8097 14.2657 66.0182 14.482C66.2345 14.6982 66.3426 14.957 66.3426 15.2582V29.6822C66.3426 29.9835 66.2306 30.2422 66.0066 30.4585C65.7904 30.667 65.5316 30.7713 65.2304 30.7713H63.0755C62.7743 30.7713 62.5155 30.6709 62.2992 30.47C62.083 30.2615 61.9749 30.0066 61.9749 29.7054Z" fill="#263238"/>
<path d="M69.6677 29.6822V15.2582C69.6677 14.957 69.7719 14.6982 69.9805 14.482C70.189 14.2657 70.4439 14.1576 70.7451 14.1576H74.1513C74.4216 14.1576 74.7074 14.2657 75.0086 14.482C75.3098 14.6982 75.557 14.957 75.7501 15.2582L82.7478 26.0212V15.235C82.7478 14.9338 82.852 14.6789 83.0606 14.4704C83.2768 14.2618 83.5356 14.1576 83.8368 14.1576H85.8295C86.1308 14.1576 86.3856 14.2618 86.5942 14.4704C86.8104 14.6789 86.9186 14.9415 86.9186 15.2582V29.6822C86.9186 29.9835 86.8104 30.2422 86.5942 30.4585C86.3856 30.667 86.1308 30.7713 85.8295 30.7713H81.9831C81.6819 30.7713 81.373 30.667 81.0563 30.4585C80.7396 30.2422 80.4886 29.9835 80.3032 29.6822L73.8964 19.7418V29.6822C73.8964 29.9835 73.7883 30.2422 73.572 30.4585C73.3635 30.667 73.1086 30.7713 72.8074 30.7713H70.7683C70.4671 30.7713 70.2083 30.667 69.9921 30.4585C69.7758 30.2422 69.6677 29.9835 69.6677 29.6822Z" fill="#263238"/>
<path d="M88.8186 16.3472V15.2582C88.8186 14.9415 88.9229 14.6789 89.1314 14.4704C89.34 14.2618 89.6026 14.1576 89.9192 14.1576H104.621C104.938 14.1576 105.201 14.2618 105.409 14.4704C105.618 14.6789 105.722 14.9415 105.722 15.2582V16.3472C105.722 16.6639 105.618 16.9265 105.409 17.1351C105.201 17.3359 104.938 17.4363 104.621 17.4363H99.4542V29.7054C99.4542 30.0066 99.346 30.2615 99.1298 30.47C98.9212 30.6709 98.6663 30.7713 98.3651 30.7713H96.1754C95.8742 30.7713 95.6155 30.6709 95.3992 30.47C95.1907 30.2615 95.0864 30.0066 95.0864 29.7054V17.4363H89.9192C89.6026 17.4363 89.34 17.3359 89.1314 17.1351C88.9229 16.9265 88.8186 16.6639 88.8186 16.3472Z" fill="#263238"/>
<path d="M107.622 29.6591V15.235C107.622 14.9338 107.73 14.6789 107.946 14.4704C108.163 14.2618 108.421 14.1576 108.723 14.1576H122.081C122.382 14.1576 122.637 14.2657 122.845 14.482C123.062 14.6982 123.17 14.957 123.17 15.2582V16.3472C123.17 16.6485 123.062 16.9072 122.845 17.1235C122.637 17.332 122.382 17.4363 122.081 17.4363H111.99V20.8077H120.679C120.98 20.8077 121.235 20.9158 121.444 21.1321C121.66 21.3406 121.768 21.5955 121.768 21.8967V22.9858C121.768 23.287 121.66 23.5457 121.444 23.762C121.235 23.9705 120.98 24.0748 120.679 24.0748H111.99V27.4926H122.058C122.351 27.4926 122.602 27.5968 122.811 27.8054C123.019 28.0139 123.123 28.2688 123.123 28.57V29.6822C123.123 29.9835 123.015 30.2422 122.799 30.4585C122.583 30.667 122.324 30.7713 122.023 30.7713H108.723C108.421 30.7713 108.163 30.667 107.946 30.4585C107.73 30.2422 107.622 29.9757 107.622 29.6591Z" fill="#263238"/>
<path d="M142.552 30.2731C142.552 30.6052 142.356 30.7713 141.962 30.7713H139.181C138.888 30.7713 138.563 30.667 138.208 30.4585C137.86 30.2422 137.594 29.9835 137.408 29.6822L135.439 26.6005C134.628 25.3338 133.647 24.7004 132.496 24.7004H129.669V29.6822C129.669 29.9835 129.561 30.2422 129.345 30.4585C129.136 30.667 128.882 30.7713 128.58 30.7713H126.402C126.101 30.7713 125.842 30.667 125.626 30.4585C125.41 30.2422 125.302 29.9835 125.302 29.6822V15.2582C125.302 14.957 125.406 14.6982 125.614 14.482C125.823 14.2657 126.078 14.1576 126.379 14.1576H135.937C137.706 14.1576 139.154 14.6326 140.282 15.5826C141.417 16.5326 141.985 17.8147 141.985 19.429C141.985 21.6766 140.529 23.0862 137.617 23.6577C138.08 23.8277 138.509 24.1212 138.903 24.5382C139.297 24.9476 139.749 25.5462 140.259 26.334L142.367 29.6822C142.491 29.8985 142.552 30.0954 142.552 30.2731ZM129.669 21.4217H134.605C135.4 21.4217 136.099 21.2634 136.702 20.9467C137.312 20.63 137.617 20.1241 137.617 19.429C137.617 18.7339 137.312 18.228 136.702 17.9113C136.099 17.5946 135.4 17.4363 134.605 17.4363H129.669V21.4217Z" fill="#263238"/>
<path d="M143.12 29.7054L146.028 18.6759C146.816 15.6714 149.38 14.1653 153.721 14.1576H159.966C160.251 14.1576 160.487 14.2657 160.672 14.482C160.865 14.6982 160.962 14.9492 160.962 15.235V29.7054C160.962 30.0066 160.854 30.2615 160.638 30.47C160.421 30.6709 160.163 30.7713 159.861 30.7713H157.683C157.367 30.7713 157.104 30.6709 156.895 30.47C156.695 30.2615 156.594 29.9989 156.594 29.6822V26.7627H148.357L147.581 29.6822C147.503 29.9989 147.33 30.2615 147.059 30.47C146.789 30.6709 146.503 30.7713 146.202 30.7713H143.92C143.618 30.7713 143.402 30.6863 143.271 30.5164C143.139 30.3387 143.074 30.1843 143.074 30.053C143.082 29.9217 143.097 29.8058 143.12 29.7054ZM149.214 23.4839H156.594V17.4363H153.292C152.551 17.4363 151.902 17.6487 151.346 18.0735C150.798 18.4906 150.427 19.0544 150.234 19.765L149.214 23.4839Z" fill="#263238"/>
<path d="M165.469 28.8133C164.04 27.4462 163.325 25.3338 163.325 22.476C163.325 19.6105 164.04 17.4942 165.469 16.1271C166.905 14.7523 169.056 14.0649 171.922 14.0649H174.505C176.259 14.0649 177.807 14.5206 179.151 15.432C180.503 16.3434 181.179 17.5908 181.179 19.1741C181.179 19.6298 181.044 19.9581 180.773 20.1589C180.503 20.352 180.24 20.4485 179.985 20.4485H178.607C177.896 20.4485 177.344 20.0237 176.95 19.1741C176.378 17.9538 175.428 17.3436 174.1 17.3436H172.038C170.346 17.3436 169.199 17.7066 168.597 18.4326C167.994 19.1587 167.693 20.5026 167.693 22.4644C167.693 24.4262 167.994 25.774 168.597 26.5078C169.199 27.2338 170.346 27.5968 172.038 27.5968H174.343C175.672 27.5968 176.618 26.9867 177.182 25.7663C177.576 24.909 178.132 24.4803 178.85 24.4803H180.229C180.592 24.4803 180.878 24.6155 181.086 24.8858C181.302 25.1561 181.41 25.4496 181.41 25.7663C181.41 27.3497 180.739 28.597 179.395 29.5084C178.051 30.4121 176.502 30.864 174.749 30.864H171.922C169.056 30.864 166.905 30.1804 165.469 28.8133Z" fill="#263238"/>
<path d="M182.013 16.3472V15.2582C182.013 14.9415 182.117 14.6789 182.326 14.4704C182.534 14.2618 182.797 14.1576 183.114 14.1576H197.816C198.132 14.1576 198.395 14.2618 198.603 14.4704C198.812 14.6789 198.916 14.9415 198.916 15.2582V16.3472C198.916 16.6639 198.812 16.9265 198.603 17.1351C198.395 17.3359 198.132 17.4363 197.816 17.4363H192.648V29.7054C192.648 30.0066 192.54 30.2615 192.324 30.47C192.116 30.6709 191.861 30.7713 191.559 30.7713H189.37C189.069 30.7713 188.81 30.6709 188.594 30.47C188.385 30.2615 188.281 30.0066 188.281 29.7054V17.4363H183.114C182.797 17.4363 182.534 17.3359 182.326 17.1351C182.117 16.9265 182.013 16.6639 182.013 16.3472Z" fill="#263238"/>
<path d="M200.816 29.7054V15.2582C200.816 14.957 200.924 14.6982 201.141 14.482C201.357 14.2657 201.616 14.1576 201.917 14.1576H204.072C204.389 14.1576 204.651 14.2657 204.86 14.482C205.076 14.6982 205.184 14.957 205.184 15.2582V29.6822C205.184 29.9835 205.072 30.2422 204.848 30.4585C204.632 30.667 204.373 30.7713 204.072 30.7713H201.917C201.616 30.7713 201.357 30.6709 201.141 30.47C200.924 30.2615 200.816 30.0066 200.816 29.7054Z" fill="#263238"/>
<path d="M4.92365 33.295V11.8831L1 14.3493V36.2097C1 40.6938 5.37206 42.3754 7.83835 42.3754H22.4119V47.0838L39.2275 37.5549H8.84729C6.51552 37.1065 4.92365 35.6491 4.92365 33.295Z" fill="url(#paint0_linear_170_1206)" stroke="url(#paint1_linear_170_1206)"/>
<path d="M40.2365 9.19254H9.74414L26.8961 0V4.70837H41.918C47.7475 5.381 48.4574 9.97727 48.5322 11.9951V32.8465L44.1601 35.0886V16.3672C44.1601 11.0983 42.927 9.19254 40.2365 9.19254Z" fill="url(#paint2_linear_170_1206)"/>
<path d="M27.4039 20.6236C29.4219 21.7466 29.4676 24.6329 27.4861 25.8191L25.6547 26.9155C23.6733 28.1017 21.1507 26.698 21.1142 24.3889L21.0804 22.2548C21.0439 19.9456 23.5208 18.4629 25.5388 19.5858L27.4039 20.6236Z" fill="url(#paint3_linear_170_1206)"/>
<path d="M208.984 29.9834V15.5594C208.984 15.2582 209.088 14.9994 209.297 14.7832C209.505 14.5669 209.76 14.4588 210.062 14.4588H218.901C223.574 14.4588 225.911 16.6137 225.911 20.9235C225.911 25.2256 223.574 27.3767 218.901 27.3767H213.352V29.9834C213.352 30.2847 213.244 30.5434 213.027 30.7597C212.819 30.9682 212.564 31.0725 212.263 31.0725H210.085C209.784 31.0725 209.525 30.9682 209.309 30.7597C209.092 30.5434 208.984 30.2847 208.984 29.9834ZM213.352 24.098H217.581C218.878 24.098 219.863 23.8817 220.535 23.4492C221.207 23.0089 221.543 22.167 221.543 20.9235C221.543 19.6723 221.207 18.8304 220.535 18.3979C219.863 17.9576 218.878 17.7375 217.581 17.7375H213.352V24.098Z" fill="url(#paint4_linear_170_1206)"/>
<path d="M228.054 30.0066V15.5826C228.054 15.2659 228.162 14.9994 228.378 14.7832C228.595 14.5669 228.853 14.4588 229.155 14.4588H231.333C231.634 14.4588 231.889 14.5669 232.097 14.7832C232.314 14.9994 232.422 15.2659 232.422 15.5826V27.7938H242.513C242.814 27.7938 243.069 27.9019 243.277 28.1182C243.494 28.3344 243.602 28.5932 243.602 28.8944V29.9834C243.602 30.2847 243.494 30.5434 243.277 30.7597C243.069 30.9682 242.814 31.0725 242.513 31.0725H229.155C228.853 31.0725 228.595 30.9721 228.378 30.7712C228.162 30.5627 228.054 30.3078 228.054 30.0066Z" fill="url(#paint5_linear_170_1206)"/>
<path d="M244.135 30.0066L247.043 18.9771C247.831 15.9726 250.395 14.4665 254.736 14.4588H260.98C261.266 14.4588 261.502 14.5669 261.687 14.7832C261.88 14.9994 261.977 15.2505 261.977 15.5362V30.0066C261.977 30.3078 261.868 30.5627 261.652 30.7712C261.436 30.9721 261.177 31.0725 260.876 31.0725H258.698C258.381 31.0725 258.119 30.9721 257.91 30.7712C257.709 30.5627 257.609 30.3001 257.609 29.9834V27.0639H249.371L248.595 29.9834C248.518 30.3001 248.344 30.5627 248.074 30.7712C247.804 30.9721 247.518 31.0725 247.217 31.0725H244.934C244.633 31.0725 244.417 30.9875 244.285 30.8176C244.154 30.6399 244.088 30.4855 244.088 30.3542C244.096 30.2229 244.112 30.107 244.135 30.0066ZM250.229 23.7852H257.609V17.7375H254.307C253.565 17.7375 252.917 17.9499 252.36 18.3747C251.812 18.7918 251.441 19.3556 251.248 20.0662L250.229 23.7852Z" fill="url(#paint6_linear_170_1206)"/>
<path d="M263.865 15.0149C263.865 14.6441 264.066 14.4588 264.467 14.4588H266.669C267.541 14.4588 268.213 14.8256 268.685 15.5594L272.438 21.3406L276.18 15.5594C276.659 14.8256 277.331 14.4588 278.196 14.4588H280.409C280.803 14.4588 281 14.6441 281 15.0149C281 15.1848 280.938 15.3663 280.815 15.5594L274.616 25.1407V30.0066C274.616 30.3078 274.508 30.5627 274.292 30.7712C274.083 30.9721 273.829 31.0725 273.527 31.0725H271.349C271.048 31.0725 270.789 30.9721 270.573 30.7712C270.357 30.5627 270.249 30.3078 270.249 30.0066V25.1407L264.062 15.5594C263.931 15.3663 263.865 15.1848 263.865 15.0149Z" fill="url(#paint7_linear_170_1206)"/>
<defs>
<linearGradient id="paint0_linear_170_1206" x1="20.1138" y1="11.8831" x2="20.1138" y2="47.0838" gradientUnits="userSpaceOnUse">
<stop stop-color="#2813A4"/>
<stop offset="1" stop-color="#0F073E"/>
</linearGradient>
<linearGradient id="paint1_linear_170_1206" x1="20.1138" y1="11.8831" x2="20.1138" y2="47.0838" gradientUnits="userSpaceOnUse">
<stop stop-color="#2813A4"/>
<stop offset="1" stop-color="#0F073E"/>
</linearGradient>
<linearGradient id="paint2_linear_170_1206" x1="29.1382" y1="0" x2="29.1382" y2="35.0886" gradientUnits="userSpaceOnUse">
<stop stop-color="#2813A4"/>
<stop offset="1" stop-color="#0F073E"/>
</linearGradient>
<linearGradient id="paint3_linear_170_1206" x1="31.9444" y1="23.1502" x2="17.4816" y2="23.379" gradientUnits="userSpaceOnUse">
<stop stop-color="#2813A4"/>
<stop offset="1" stop-color="#0F073E"/>
</linearGradient>
<linearGradient id="paint4_linear_170_1206" x1="208.984" y1="22.7656" x2="281" y2="22.7656" gradientUnits="userSpaceOnUse">
<stop stop-color="#2813A4"/>
<stop offset="1" stop-color="#0F073E"/>
</linearGradient>
<linearGradient id="paint5_linear_170_1206" x1="208.984" y1="22.7656" x2="281" y2="22.7656" gradientUnits="userSpaceOnUse">
<stop stop-color="#2813A4"/>
<stop offset="1" stop-color="#0F073E"/>
</linearGradient>
<linearGradient id="paint6_linear_170_1206" x1="208.984" y1="22.7656" x2="281" y2="22.7656" gradientUnits="userSpaceOnUse">
<stop stop-color="#2813A4"/>
<stop offset="1" stop-color="#0F073E"/>
</linearGradient>
<linearGradient id="paint7_linear_170_1206" x1="208.984" y1="22.7656" x2="281" y2="22.7656" gradientUnits="userSpaceOnUse">
<stop stop-color="#2813A4"/>
<stop offset="1" stop-color="#0F073E"/>
</linearGradient>
</defs>
</svg>
