<svg width="220" height="38" viewBox="0 0 220 38" fill="none" xmlns="http://www.w3.org/2000/svg">
<path d="M48.6909 23.2341V11.9343C48.6909 11.6987 48.7755 11.4963 48.9446 11.3272C49.1138 11.158 49.3162 11.0735 49.5518 11.0735H51.2372C51.4849 11.0735 51.6903 11.158 51.8534 11.3272C52.0226 11.4963 52.1071 11.6987 52.1071 11.9343V23.216C52.1071 23.4516 52.0195 23.6539 51.8443 23.8231C51.6752 23.9862 51.4728 24.0678 51.2372 24.0678H49.5518C49.3162 24.0678 49.1138 23.9892 48.9446 23.8322C48.7755 23.669 48.6909 23.4697 48.6909 23.2341Z" fill="white"/>
<path d="M54.7078 23.216V11.9343C54.7078 11.6987 54.7894 11.4963 54.9525 11.3272C55.1156 11.158 55.3149 11.0735 55.5505 11.0735H58.2146C58.4261 11.0735 58.6496 11.158 58.8852 11.3272C59.1208 11.4963 59.3141 11.6987 59.4651 11.9343L64.9383 20.3525V11.9162C64.9383 11.6806 65.0199 11.4812 65.183 11.3181C65.3521 11.155 65.5545 11.0735 65.7901 11.0735H67.3487C67.5843 11.0735 67.7836 11.155 67.9468 11.3181C68.1159 11.4812 68.2005 11.6866 68.2005 11.9343V23.216C68.2005 23.4516 68.1159 23.6539 67.9468 23.8231C67.7836 23.9862 67.5843 24.0678 67.3487 24.0678H64.3402C64.1046 24.0678 63.863 23.9862 63.6153 23.8231C63.3676 23.6539 63.1713 23.4516 63.0263 23.216L58.0153 15.4411V23.216C58.0153 23.4516 57.9307 23.6539 57.7615 23.8231C57.5984 23.9862 57.3991 24.0678 57.1635 24.0678H55.5686C55.333 24.0678 55.1307 23.9862 54.9615 23.8231C54.7924 23.6539 54.7078 23.4516 54.7078 23.216Z" fill="white"/>
<path d="M69.6866 12.7861V11.9343C69.6866 11.6866 69.7681 11.4812 69.9312 11.3181C70.0943 11.155 70.2997 11.0735 70.5474 11.0735H82.0466C82.2942 11.0735 82.4996 11.155 82.6627 11.3181C82.8259 11.4812 82.9074 11.6866 82.9074 11.9343V12.7861C82.9074 13.0338 82.8259 13.2392 82.6627 13.4023C82.4996 13.5594 82.2942 13.6379 82.0466 13.6379H78.0051V23.2341C78.0051 23.4697 77.9205 23.669 77.7514 23.8322C77.5883 23.9892 77.3889 24.0678 77.1533 24.0678H75.4407C75.2051 24.0678 75.0027 23.9892 74.8335 23.8322C74.6704 23.669 74.5889 23.4697 74.5889 23.2341V13.6379H70.5474C70.2997 13.6379 70.0943 13.5594 69.9312 13.4023C69.7681 13.2392 69.6866 13.0338 69.6866 12.7861Z" fill="white"/>
<path d="M84.3935 23.1978V11.9162C84.3935 11.6806 84.4781 11.4812 84.6472 11.3181C84.8164 11.155 85.0187 11.0735 85.2543 11.0735H95.7023C95.9379 11.0735 96.1373 11.158 96.3004 11.3272C96.4696 11.4963 96.5541 11.6987 96.5541 11.9343V12.7861C96.5541 13.0217 96.4696 13.2241 96.3004 13.3932C96.1373 13.5563 95.9379 13.6379 95.7023 13.6379H87.8097V16.2748H94.6059C94.8415 16.2748 95.0408 16.3594 95.204 16.5285C95.3731 16.6916 95.4577 16.891 95.4577 17.1266V17.9784C95.4577 18.214 95.3731 18.4164 95.204 18.5855C95.0408 18.7486 94.8415 18.8302 94.6059 18.8302H87.8097V21.5033H95.6842C95.9138 21.5033 96.1101 21.5849 96.2732 21.748C96.4363 21.9111 96.5179 22.1105 96.5179 22.3461V23.216C96.5179 23.4516 96.4333 23.6539 96.2642 23.8231C96.095 23.9862 95.8926 24.0678 95.657 24.0678H85.2543C85.0187 24.0678 84.8164 23.9862 84.6472 23.8231C84.4781 23.6539 84.3935 23.4455 84.3935 23.1978Z" fill="white"/>
<path d="M111.714 23.6781C111.714 23.9379 111.56 24.0678 111.252 24.0678H109.077C108.848 24.0678 108.594 23.9862 108.316 23.8231C108.044 23.6539 107.836 23.4516 107.691 23.216L106.15 20.8056C105.516 19.8149 104.749 19.3195 103.849 19.3195H101.638V23.216C101.638 23.4516 101.553 23.6539 101.384 23.8231C101.221 23.9862 101.021 24.0678 100.786 24.0678H99.0823C98.8467 24.0678 98.6443 23.9862 98.4752 23.8231C98.306 23.6539 98.2215 23.4516 98.2215 23.216V11.9343C98.2215 11.6987 98.303 11.4963 98.4661 11.3272C98.6292 11.158 98.8286 11.0735 99.0642 11.0735H106.54C107.923 11.0735 109.056 11.445 109.938 12.188C110.826 12.9311 111.27 13.9339 111.27 15.1965C111.27 16.9544 110.131 18.0569 107.854 18.504C108.216 18.6369 108.552 18.8664 108.86 19.1926C109.168 19.5128 109.521 19.981 109.92 20.5972L111.569 23.216C111.666 23.3851 111.714 23.5392 111.714 23.6781ZM101.638 16.7551H105.498C106.12 16.7551 106.667 16.6312 107.138 16.3835C107.615 16.1359 107.854 15.7402 107.854 15.1965C107.854 14.6528 107.615 14.2571 107.138 14.0094C106.667 13.7617 106.12 13.6379 105.498 13.6379H101.638V16.7551Z" fill="white"/>
<path d="M112.158 23.2341L114.433 14.6075C115.049 12.2575 117.054 11.0795 120.449 11.0735H125.334C125.557 11.0735 125.741 11.158 125.886 11.3272C126.037 11.4963 126.113 11.6927 126.113 11.9162V23.2341C126.113 23.4697 126.028 23.669 125.859 23.8322C125.69 23.9892 125.488 24.0678 125.252 24.0678H123.549C123.301 24.0678 123.095 23.9892 122.932 23.8322C122.775 23.669 122.697 23.4637 122.697 23.216V20.9325H116.254L115.647 23.216C115.586 23.4637 115.451 23.669 115.239 23.8322C115.028 23.9892 114.804 24.0678 114.569 24.0678H112.783C112.548 24.0678 112.379 24.0013 112.276 23.8684C112.173 23.7295 112.122 23.6086 112.122 23.5059C112.128 23.4032 112.14 23.3126 112.158 23.2341ZM116.925 18.368H122.697V13.6379H120.114C119.534 13.6379 119.027 13.804 118.592 14.1363C118.163 14.4625 117.873 14.9035 117.722 15.4593L116.925 18.368Z" fill="white"/>
<path d="M129.638 22.5364C128.52 21.4671 127.962 19.8149 127.962 17.5797C127.962 15.3384 128.52 13.6832 129.638 12.6139C130.762 11.5386 132.444 11.001 134.685 11.001H136.706C138.077 11.001 139.288 11.3574 140.34 12.0702C141.397 12.7831 141.925 13.7587 141.925 14.9971C141.925 15.3535 141.82 15.6103 141.608 15.7674C141.397 15.9184 141.191 15.9939 140.992 15.9939H139.914C139.358 15.9939 138.926 15.6616 138.618 14.9971C138.171 14.0426 137.428 13.5654 136.389 13.5654H134.776C133.453 13.5654 132.556 13.8493 132.085 14.4172C131.613 14.985 131.378 16.0362 131.378 17.5706C131.378 19.105 131.613 20.1592 132.085 20.7331C132.556 21.301 133.453 21.5849 134.776 21.5849H136.579C137.618 21.5849 138.358 21.1076 138.799 20.1532C139.107 19.4826 139.542 19.1473 140.104 19.1473H141.182C141.466 19.1473 141.69 19.253 141.853 19.4645C142.022 19.6759 142.107 19.9055 142.107 20.1532C142.107 21.3916 141.581 22.3672 140.53 23.08C139.479 23.7868 138.268 24.1403 136.896 24.1403H134.685C132.444 24.1403 130.762 23.6056 129.638 22.5364Z" fill="white"/>
<path d="M142.578 12.7861V11.9343C142.578 11.6866 142.659 11.4812 142.823 11.3181C142.986 11.155 143.191 11.0735 143.439 11.0735H154.938C155.186 11.0735 155.391 11.155 155.554 11.3181C155.717 11.4812 155.799 11.6866 155.799 11.9343V12.7861C155.799 13.0338 155.717 13.2392 155.554 13.4023C155.391 13.5594 155.186 13.6379 154.938 13.6379H150.896V23.2341C150.896 23.4697 150.812 23.669 150.643 23.8322C150.48 23.9892 150.28 24.0678 150.045 24.0678H148.332C148.096 24.0678 147.894 23.9892 147.725 23.8322C147.562 23.669 147.48 23.4697 147.48 23.2341V13.6379H143.439C143.191 13.6379 142.986 13.5594 142.823 13.4023C142.659 13.2392 142.578 13.0338 142.578 12.7861Z" fill="white"/>
<path d="M157.285 23.2341V11.9343C157.285 11.6987 157.369 11.4963 157.538 11.3272C157.708 11.158 157.91 11.0735 158.146 11.0735H159.831C160.079 11.0735 160.284 11.158 160.447 11.3272C160.616 11.4963 160.701 11.6987 160.701 11.9343V23.216C160.701 23.4516 160.613 23.6539 160.438 23.8231C160.269 23.9862 160.067 24.0678 159.831 24.0678H158.146C157.91 24.0678 157.708 23.9892 157.538 23.8322C157.369 23.669 157.285 23.4697 157.285 23.2341Z" fill="white"/>
<path d="M4.06885 26.0416V9.29443L1 11.2234V28.3213C1 31.8286 4.41958 33.1438 6.34857 33.1438H17.7472V36.8264L30.8994 29.3735H7.1377C5.31393 29.0228 4.06885 27.8829 4.06885 26.0416Z" fill="white" stroke="white"/>
<path d="M31.6885 7.18988H7.83911L21.2544 0V3.68262H33.0037C37.5631 4.20871 38.1184 7.80365 38.1769 9.38192V25.6907L34.7573 27.4443V12.8015C34.7573 8.68047 33.7928 7.18988 31.6885 7.18988Z" fill="white"/>
<path d="M22.176 16.4223C23.5213 17.1709 23.5518 19.0952 22.2308 19.886L19.7688 21.3599C18.4478 22.1507 16.7661 21.2149 16.7417 19.6755L16.6963 16.8064C16.672 15.2669 18.3232 14.2784 19.6685 15.0271L22.176 16.4223Z" fill="white"/>
<path d="M163.673 23.4511V12.1694C163.673 11.9338 163.755 11.7315 163.918 11.5623C164.081 11.3932 164.28 11.3086 164.516 11.3086H171.43C175.085 11.3086 176.912 12.994 176.912 16.3649C176.912 19.7298 175.085 21.4122 171.43 21.4122H167.09V23.4511C167.09 23.6867 167.005 23.8891 166.836 24.0582C166.673 24.2213 166.473 24.3029 166.238 24.3029H164.534C164.299 24.3029 164.096 24.2213 163.927 24.0582C163.758 23.8891 163.673 23.6867 163.673 23.4511ZM167.09 18.8478H170.397C171.412 18.8478 172.182 18.6787 172.708 18.3404C173.233 17.996 173.496 17.3376 173.496 16.3649C173.496 15.3863 173.233 14.7278 172.708 14.3895C172.182 14.0452 171.412 13.873 170.397 13.873H167.09V18.8478Z" fill="white"/>
<path d="M178.589 23.4692V12.1876C178.589 11.9399 178.673 11.7315 178.842 11.5623C179.012 11.3932 179.214 11.3086 179.45 11.3086H181.153C181.389 11.3086 181.588 11.3932 181.751 11.5623C181.92 11.7315 182.005 11.9399 182.005 12.1876V21.7385H189.898C190.133 21.7385 190.332 21.823 190.496 21.9922C190.665 22.1613 190.749 22.3637 190.749 22.5993V23.4511C190.749 23.6867 190.665 23.8891 190.496 24.0582C190.332 24.2213 190.133 24.3029 189.898 24.3029H179.45C179.214 24.3029 179.012 24.2243 178.842 24.0673C178.673 23.9042 178.589 23.7048 178.589 23.4692Z" fill="white"/>
<path d="M191.166 23.4692L193.441 14.8426C194.057 12.4926 196.062 11.3146 199.457 11.3086H204.342C204.565 11.3086 204.749 11.3932 204.894 11.5623C205.045 11.7315 205.121 11.9278 205.121 12.1513V23.4692C205.121 23.7048 205.036 23.9042 204.867 24.0673C204.698 24.2243 204.496 24.3029 204.26 24.3029H202.557C202.309 24.3029 202.103 24.2243 201.94 24.0673C201.783 23.9042 201.705 23.6988 201.705 23.4511V21.1676H195.262L194.655 23.4511C194.594 23.6988 194.459 23.9042 194.247 24.0673C194.036 24.2243 193.812 24.3029 193.577 24.3029H191.791C191.556 24.3029 191.387 24.2364 191.284 24.1035C191.181 23.9646 191.13 23.8438 191.13 23.7411C191.136 23.6384 191.148 23.5478 191.166 23.4692ZM195.933 18.6032H201.705V13.873H199.122C198.542 13.873 198.035 14.0391 197.6 14.3714C197.171 14.6976 196.881 15.1386 196.73 15.6944L195.933 18.6032Z" fill="white"/>
<path d="M206.598 11.7435C206.598 11.4536 206.755 11.3086 207.069 11.3086H208.791C209.474 11.3086 209.999 11.5955 210.368 12.1694L213.304 16.6912L216.23 12.1694C216.605 11.5955 217.131 11.3086 217.807 11.3086H219.538C219.846 11.3086 220 11.4536 220 11.7435C220 11.8765 219.952 12.0184 219.855 12.1694L215.007 19.6634V23.4692C215.007 23.7048 214.923 23.9042 214.753 24.0673C214.59 24.2243 214.391 24.3029 214.155 24.3029H212.452C212.216 24.3029 212.014 24.2243 211.845 24.0673C211.675 23.9042 211.591 23.7048 211.591 23.4692V19.6634L206.752 12.1694C206.649 12.0184 206.598 11.8765 206.598 11.7435Z" fill="white"/>
</svg>
