<svg width="210" height="210" viewBox="0 0 210 210" fill="none" xmlns="http://www.w3.org/2000/svg">
<rect width="210" height="210" rx="13" fill="url(#paint0_linear_10_10)"/>
<path d="M50.6487 131.362V73.2503L40 79.9437V139.272C40 151.442 51.8657 156.006 58.5591 156.006H98.1114V168.784L143.749 142.923H61.2974C54.969 141.706 50.6487 137.751 50.6487 131.362Z" fill="white"/>
<path d="M146.486 65.9483H63.731L110.281 41V53.7784H151.05C166.871 55.6039 168.798 68.0781 169.001 73.5545V130.145L157.135 136.23V85.4202C157.135 71.1206 153.788 65.9483 146.486 65.9483Z" fill="white"/>
<path d="M117.926 100.46C120.617 101.958 120.678 105.806 118.036 107.388L100.755 117.733C98.1131 119.314 94.7497 117.443 94.701 114.364L94.3823 94.2257C94.3336 91.1469 97.6361 89.1699 100.327 90.6671L117.926 100.46Z" fill="white"/>
<defs>
<linearGradient id="paint0_linear_10_10" x1="105" y1="0" x2="105" y2="210" gradientUnits="userSpaceOnUse">
<stop stop-color="#23118E"/>
<stop offset="1" stop-color="#0A0528"/>
</linearGradient>
</defs>
</svg>
