<svg width="15" height="15" viewBox="0 0 15 15" fill="none" xmlns="http://www.w3.org/2000/svg">
<path fill-rule="evenodd" clip-rule="evenodd" d="M4.81211 0.0432218C5.5799 0.00840424 5.82493 0 7.77979 0C9.73465 0 9.97968 0.00840424 10.7475 0.0432218C11.9177 0.0966487 12.945 0.383593 13.7697 1.20901C14.5948 2.03472 14.8812 3.06304 14.9346 4.23363C14.9694 5.00202 14.9778 5.24724 14.9778 7.20363C14.9778 9.16002 14.9694 9.40524 14.9346 10.1736C14.8812 11.3448 14.5945 12.3728 13.7697 13.1982C12.9447 14.024 11.9168 14.3106 10.7475 14.364C9.97968 14.3989 9.73465 14.4073 7.77979 14.4073C5.82493 14.4073 5.5799 14.3989 4.81211 14.364C3.64184 14.3106 2.61462 14.0237 1.78985 13.1982C0.964781 12.3725 0.67836 11.3442 0.624975 10.1736C0.590185 9.40524 0.581787 9.16002 0.581787 7.20363C0.581787 5.24724 0.590185 5.00202 0.624975 4.23363C0.67836 3.06244 0.965081 2.03442 1.78985 1.20901C2.61492 0.383293 3.64244 0.0966487 4.81211 0.0432218ZM10.6884 1.33987C9.92928 1.30506 9.70164 1.29785 7.77977 1.29785C5.8579 1.29785 5.63027 1.30536 4.87118 1.33987C4.05211 1.37739 3.29182 1.54157 2.70698 2.12687C2.12214 2.71216 1.95809 3.47305 1.9206 4.29276C1.88581 5.05244 1.87861 5.28026 1.87861 7.20363C1.87861 9.127 1.88611 9.35481 1.9206 10.1145C1.95809 10.9342 2.12214 11.6951 2.70698 12.2804C3.29182 12.8657 4.05211 13.0299 4.87118 13.0674C5.62997 13.1022 5.8576 13.1094 7.77977 13.1094C9.70194 13.1094 9.92958 13.1019 10.6884 13.0674C11.5074 13.0299 12.2677 12.8657 12.8526 12.2804C13.4374 11.6951 13.6015 10.9342 13.6389 10.1145C13.6737 9.35481 13.6809 9.127 13.6809 7.20363C13.6809 5.28026 13.6734 5.05244 13.6389 4.29276C13.6015 3.47305 13.4374 2.71216 12.8526 2.12687C12.2677 1.54157 11.5074 1.37739 10.6884 1.33987Z" fill="white"/>
<path fill-rule="evenodd" clip-rule="evenodd" d="M4.50781 7.53101C4.50781 5.54189 6.11895 3.9292 8.10682 3.9292C10.0947 3.9292 11.7058 5.5416 11.7058 7.53101C11.7058 9.52043 10.0947 11.1328 8.10682 11.1328C6.11895 11.1328 4.50781 9.52014 4.50781 7.53101ZM5.77046 7.53095C5.77046 8.82216 6.81652 9.86903 8.10672 9.86903C9.39692 9.86903 10.443 8.82216 10.443 7.53095C10.443 6.23975 9.39692 5.19287 8.10672 5.19287C6.81652 5.19287 5.77046 6.23975 5.77046 7.53095Z" fill="white"/>
<ellipse cx="11.3788" cy="3.60194" rx="0.981546" ry="0.982313" fill="white"/>
</svg>
