<svg width="14" height="13" viewBox="0 0 14 13" fill="none" xmlns="http://www.w3.org/2000/svg">
<path fill-rule="evenodd" clip-rule="evenodd" d="M13.5962 1.99304C13.0864 2.24059 12.5482 2.3953 11.9817 2.48813C12.5482 2.11681 13.0014 1.52889 13.1997 0.81719C12.6615 1.15757 12.0667 1.40512 11.4152 1.55983C10.9053 0.971907 10.1688 0.600586 9.37574 0.600586C7.84616 0.600586 6.59984 1.9621 6.59984 3.63304C6.59984 3.88059 6.62816 4.09719 6.68482 4.3138C4.39045 4.19002 2.32269 2.98323 0.934741 1.12662C0.708137 1.59078 0.56651 2.08587 0.56651 2.64285C0.56651 3.69493 1.04804 4.62323 1.81283 5.18021C1.35962 5.14927 0.934741 5.0255 0.538184 4.80889V4.83984C0.538184 6.32512 1.50125 7.56286 2.7759 7.84135C2.54929 7.90323 2.29436 7.93418 2.03944 7.93418C1.86948 7.93418 1.6712 7.90323 1.50125 7.87229C1.86948 9.07908 2.8892 9.97644 4.1072 9.97644C3.14413 10.781 1.95446 11.2761 0.651486 11.2761C0.424882 11.2761 0.198278 11.2761 0 11.2451C1.24632 12.1115 2.69092 12.6066 4.27715 12.6066C9.40406 12.6066 12.2083 7.96512 12.2083 3.94248C12.2083 3.8187 12.2083 3.66398 12.2083 3.54021C12.7465 3.13795 13.228 2.61191 13.5962 1.99304Z" fill="white"/>
</svg>
