<svg width="16" height="15" viewBox="0 0 16 15" fill="none" xmlns="http://www.w3.org/2000/svg">
<path d="M14.5872 0H1.39085C1.05957 0 0.791016 0.268764 0.791016 0.600302V13.807C0.791016 14.1385 1.05957 14.4073 1.39085 14.4073H8.48037V8.82802H6.6043V6.65367H8.48037V5.05016C8.48037 3.18929 9.61604 2.17601 11.2748 2.17601C12.0693 2.17601 12.7522 2.23521 12.9512 2.26168V4.20639L11.8008 4.20691C10.8987 4.20691 10.724 4.63592 10.724 5.26545V6.65367H12.8754L12.5953 8.82802H10.724V14.4073H14.5872C14.9185 14.4073 15.187 14.1385 15.187 13.807V0.600302C15.187 0.268764 14.9185 0 14.5872 0Z" fill="white"/>
</svg>
