<svg width="15" height="15" viewBox="0 0 15 15" fill="none" xmlns="http://www.w3.org/2000/svg">
<path fill-rule="evenodd" clip-rule="evenodd" d="M0.772441 0H13.9688C14.2987 0 14.5686 0.270136 14.5686 0.600302V13.807C14.5686 14.1371 14.2987 14.4073 13.9688 14.4073H0.772441C0.442533 14.4073 0.172607 14.1371 0.172607 13.807V0.600302C0.172607 0.270136 0.442533 0 0.772441 0ZM2.30203 12.2763H4.43144V5.40283H2.30203V12.2763ZM3.38166 4.47247C2.69185 4.47247 2.152 3.9322 2.152 3.24185C2.152 2.5515 2.69185 2.01123 3.38166 2.01123C4.07147 2.01123 4.61132 2.5515 4.61132 3.24185C4.61132 3.90218 4.07147 4.47247 3.38166 4.47247ZM10.3097 12.2762H12.4092V8.4943C12.4092 6.63337 12.0193 5.22266 9.85987 5.22266C8.84016 5.22266 8.12036 5.79294 7.85043 6.33322H7.82044V5.40275H5.781V12.2762H7.91041V8.8845C7.91041 7.98405 8.09036 7.11361 9.20006 7.11361C10.3097 7.11361 10.3097 8.13412 10.3097 8.94453V12.2762Z" fill="white"/>
</svg>
